<svg width="110" height="140" viewBox="330 -10 110 140" xmlns="http://www.w3.org/2000/svg" fill="#D8C5AD">
 <g id="Layer_1">
  <title>Layer 1</title>
  <g>
   <g transform="translate(-559.683 -89.71)" id="svg_1">
    <g data-name="Group 12" id="svg_6">
     <path d="m973.658,175.135a10.027,10.027 0 0 0 -1.66,-2.36l-17.74,-19.61l0,-32.7c0,-9.65 -7.6,-27.47 -18.42,-27.47l-0.31,0c-10.82,0 -18.42,17.82 -18.42,27.47l0,32.7l-17.74,19.61a9.869,9.869 0 0 0 -1.66,2.37a9.995,9.995 0 0 0 -0.99,4.34l0,5.04a6.432,6.432 0 0 0 6.43,6.43l13.96,0l0,1.7a5.725,5.725 0 0 0 5.72,5.72l1.67,0l0,5.05a2.75,2.75 0 1 0 5.5,0l0,-5.05l2.93,0l0,2.36a2.75,2.75 0 0 0 5.5,0l0,-2.36l2.94,0l0,5.05a2.75,2.75 0 1 0 5.5,0l0,-5.05l1.67,0a5.725,5.725 0 0 0 5.72,-5.72l0,-1.7l13.96,0a6.432,6.432 0 0 0 6.43,-6.43l0,-5.04a10.07,10.07 0 0 0 -0.99,-4.35zm-56.55,10.32l-13.96,0a0.935,0.935 0 0 1 -0.93,-0.93l0,-5.04a4.478,4.478 0 0 1 0.44,-1.94a5.028,5.028 0 0 1 0.78,-1.08l13.67,-15.11l0,24.1zm15.82,7.42l-10.1,0a0.222,0.222 0 0 1 -0.22,-0.22l0,-1.7l10.32,0l0,1.92zm15.83,-0.22a0.222,0.222 0 0 1 -0.22,0.22l-10.11,0l0,-1.92l10.33,0l0,1.7zm0,-7.2l-10.33,0l0,-7.14a2.75,2.75 0 1 0 -5.5,0l0,7.14l-10.32,0l0,-14.27l26.15,0l0,14.27zm0,-19.77l-26.15,0l0,-14.28l26.15,0l0,14.28zm0,-19.78l-26.15,0l0,-14.28l26.15,0l0,14.28zm0,-19.78l-26.15,0l0,-5.66c0,-7.87 6.51,-21.97 12.92,-21.97l0.31,0c6.41,0 12.92,14.1 12.92,21.97l0,5.66zm20.39,58.4a0.935,0.935 0 0 1 -0.93,0.93l-13.96,0l0,-24.1l13.67,15.11a5.026,5.026 0 0 1 0.78,1.08a4.477,4.477 0 0 1 0.44,1.94l0,5.04z" data-name="Path 12" id="svg_7" fill="#D8C5AD"/>
    </g>
    <g data-name="Group 13" id="svg_4">
     <path d="m938.428,209.145l0,2.53a2.75,2.75 0 1 1 -5.5,0l0,-2.53a2.75,2.75 0 1 1 5.5,0z" data-name="Path 13" id="svg_5" fill="#d14206"/>
    </g>
    <g data-name="Group 14" id="svg_2">
     <path d="m943.778,120.875a2.753,2.753 0 0 1 -3.53,-1.63a4.714,4.714 0 0 0 -4.5,-3.23a4.917,4.917 0 0 0 -4.65,3.27a2.759,2.759 0 0 1 -2.57,1.77a2.676,2.676 0 0 1 -0.99,-0.19a2.754,2.754 0 0 1 -1.58,-3.55a10.355,10.355 0 0 1 9.79,-6.8a10.133,10.133 0 0 1 9.67,6.84a2.743,2.743 0 0 1 -1.64,3.52z" data-name="Path 14" id="svg_3" fill="#574495"/>
    </g>
   </g>
  </g>
 </g>
</svg>